<svg width="92" height="92" viewBox="0 0 92 92" fill="none" xmlns="http://www.w3.org/2000/svg">
<path d="M60.2703 32.6245C59.9665 32.4675 59.6709 32.2954 59.3843 32.1089C58.5511 31.558 57.7872 30.909 57.109 30.1757C55.4122 28.2342 54.7784 26.2645 54.545 24.8854H54.5543C54.3593 23.7407 54.44 23.0001 54.4522 23.0001H46.7234V52.8857C46.7234 53.287 46.7234 53.6836 46.7065 54.0754C46.7065 54.1242 46.7018 54.1692 46.699 54.2217C46.699 54.2432 46.699 54.2657 46.6943 54.2882C46.6943 54.2939 46.6943 54.2995 46.6943 54.3051C46.6129 55.3774 46.2691 56.4132 45.6934 57.3215C45.1176 58.2298 44.3275 58.9826 43.3925 59.5139C42.418 60.0683 41.3158 60.3591 40.1947 60.3576C36.5937 60.3576 33.6753 57.4214 33.6753 53.7951C33.6753 50.1689 36.5937 47.2326 40.1947 47.2326C40.8763 47.232 41.5537 47.3392 42.2018 47.5504L42.2112 39.6811C40.2437 39.4269 38.245 39.5833 36.3409 40.1403C34.4369 40.6973 32.669 41.6428 31.1487 42.9173C29.8166 44.0747 28.6967 45.4558 27.8393 46.9982C27.5131 47.5607 26.2822 49.8211 26.1331 53.4895C26.0393 55.5717 26.6647 57.7289 26.9628 58.6204V58.6392C27.1503 59.1642 27.8768 60.9557 29.0609 62.4661C30.0157 63.6776 31.1437 64.7418 32.4087 65.6245V65.6057L32.4275 65.6245C36.169 68.167 40.3175 68.0001 40.3175 68.0001C41.0356 67.9711 43.4412 68.0001 46.1731 66.7054C49.2031 65.2701 50.9281 63.1317 50.9281 63.1317C52.0301 61.8539 52.9064 60.3978 53.5193 58.8257C54.2187 56.9873 54.4522 54.7823 54.4522 53.9011V38.0461C54.5459 38.1023 55.7947 38.9282 55.7947 38.9282C55.7947 38.9282 57.5937 40.0814 60.4006 40.8323C62.4143 41.3667 65.1275 41.4792 65.1275 41.4792V33.8067C64.1768 33.9098 62.2465 33.6098 60.2703 32.6245Z" fill="white"/>
</svg>
