<svg width="93" height="92" viewBox="0 0 93 92" fill="none" xmlns="http://www.w3.org/2000/svg">
<path d="M69.0673 31.285C67.5555 31.9362 65.9661 32.3897 64.3384 32.6342C65.0994 32.5036 66.2191 31.1327 66.6648 30.5777C67.3419 29.7407 67.858 28.7852 68.1867 27.7597C68.1867 27.6835 68.2628 27.5747 68.1867 27.5203C68.1484 27.4993 68.1054 27.4884 68.0617 27.4884C68.018 27.4884 67.9751 27.4993 67.9367 27.5203C66.1693 28.4782 64.2883 29.2094 62.3382 29.6964C62.2702 29.7172 62.1979 29.7191 62.1289 29.7018C62.06 29.6846 61.997 29.6488 61.9468 29.5985C61.795 29.4176 61.6316 29.2468 61.4576 29.0871C60.6622 28.3738 59.7598 27.79 58.7834 27.3571C57.4653 26.8159 56.0416 26.5815 54.6198 26.6716C53.2402 26.7588 51.8933 27.1292 50.6628 27.7597C49.4511 28.4244 48.3861 29.3274 47.532 30.4145C46.6334 31.5334 45.9848 32.832 45.6295 34.2227C45.3366 35.5457 45.3034 36.913 45.5317 38.2486C45.5317 38.4771 45.5317 38.5097 45.336 38.4771C37.585 37.3346 31.2255 34.5818 26.0292 28.6736C25.8009 28.4125 25.6813 28.4125 25.4965 28.6736C23.2354 32.1119 24.3334 37.5522 27.1598 40.2397C27.5403 40.5988 27.9316 40.947 28.3447 41.2734C27.0488 41.1813 25.7846 40.8298 24.6269 40.2397C24.4094 40.0983 24.2899 40.1744 24.279 40.4356C24.2482 40.7976 24.2482 41.1616 24.279 41.5236C24.5058 43.2587 25.189 44.9022 26.2586 46.2863C27.3282 47.6704 28.7459 48.7454 30.3667 49.4012C30.7618 49.5706 31.1735 49.6982 31.5951 49.782C30.3955 50.0184 29.165 50.0552 27.9534 49.8908C27.6925 49.8364 27.5946 49.9779 27.6925 50.2281C29.2905 54.5804 32.7583 55.9078 35.3021 56.6477C35.65 56.7021 35.9979 56.7021 36.3892 56.7891C36.3892 56.7891 36.3892 56.7891 36.324 56.8544C35.5739 58.2254 32.5409 59.1502 31.1494 59.629C28.6096 60.5421 25.9017 60.8911 23.2136 60.6517C22.7897 60.5865 22.6918 60.5973 22.5831 60.6517C22.4744 60.7062 22.5831 60.8258 22.7027 60.9346C23.2463 61.2937 23.7898 61.6092 24.3551 61.9139C26.038 62.8326 27.8171 63.5624 29.6601 64.09C39.2048 66.7231 49.9453 64.7864 57.1093 57.6596C62.7404 52.0669 64.7189 44.3526 64.7189 36.6274C64.7189 36.3336 65.0777 36.1595 65.2842 36.0072C66.7089 34.8961 67.9649 33.584 69.0129 32.1119C69.1945 31.8925 69.2875 31.6131 69.2738 31.3285C69.2738 31.1653 69.2738 31.1979 69.0673 31.285Z" fill="white"/>
</svg>
