<svg width="93" height="92" viewBox="0 0 93 92" fill="none" xmlns="http://www.w3.org/2000/svg">
<path d="M23.576 66.9763L26.8607 54.7631C24.2117 50.0055 23.3701 44.4537 24.4903 39.1265C25.6105 33.7993 28.6174 29.0542 32.9592 25.7617C37.3011 22.4692 42.6866 20.8503 48.1275 21.202C53.5684 21.5538 58.6998 23.8525 62.58 27.6765C66.4603 31.5006 68.8291 36.5933 69.2518 42.0202C69.6745 47.4471 68.1227 52.8441 64.8812 57.221C61.6397 61.5979 56.926 64.6609 51.6049 65.8481C46.2838 67.0353 40.7124 66.267 35.913 63.6842L23.576 66.9763ZM36.5078 59.1139L37.2708 59.5658C40.7472 61.6229 44.8075 62.4741 48.819 61.9869C52.8305 61.4997 56.5679 59.7013 59.4488 56.8721C62.3297 54.0429 64.1922 50.3417 64.7461 46.3454C65.3 42.3491 64.5142 38.282 62.5111 34.7781C60.5081 31.2742 57.4002 28.5302 53.6719 26.9738C49.9437 25.4173 45.8044 25.1359 41.8992 26.1732C37.9939 27.2106 34.5421 29.5085 32.0816 32.7089C29.6211 35.9093 28.2902 39.8324 28.2962 43.8668C28.2929 47.212 29.2196 50.4924 30.973 53.343L31.4515 54.1305L29.6152 60.9472L36.5078 59.1139Z" fill="white"/>
<path fill-rule="evenodd" clip-rule="evenodd" d="M55.0258 47.0028C54.5785 46.6427 54.0548 46.3892 53.4946 46.2616C52.9343 46.1341 52.3523 46.1359 51.7929 46.2669C50.9523 46.6155 50.4092 47.9324 49.866 48.5908C49.7515 48.7486 49.5832 48.8593 49.3927 48.9021C49.2023 48.9449 49.0027 48.9168 48.8315 48.8232C45.7541 47.6199 43.1747 45.4132 41.5121 42.5617C41.3703 42.3837 41.3032 42.1578 41.3249 41.9314C41.3466 41.7051 41.4554 41.4959 41.6285 41.3481C42.2342 40.7494 42.679 40.0078 42.9216 39.1921C42.9755 38.2922 42.769 37.3959 42.3268 36.61C41.9849 35.5082 41.3342 34.5271 40.4517 33.7826C39.9965 33.5782 39.4918 33.5097 38.9984 33.5853C38.5051 33.6609 38.0442 33.8774 37.6713 34.2087C37.0241 34.7662 36.5103 35.4616 36.1679 36.2436C35.8255 37.0256 35.6631 37.8743 35.6928 38.7273C35.6948 39.2063 35.7556 39.6832 35.8738 40.1474C36.1741 41.2628 36.6359 42.3283 37.2446 43.3105C37.6837 44.0628 38.1629 44.7911 38.68 45.4923C40.3606 47.7955 42.4731 49.751 44.9002 51.2503C46.1182 52.0122 47.4199 52.6317 48.7797 53.0965C50.1923 53.7358 51.7519 53.9811 53.2929 53.8066C54.171 53.6739 55.0029 53.3278 55.7154 52.7988C56.428 52.2697 56.9994 51.5739 57.3794 50.7726C57.6026 50.2886 57.6704 49.7474 57.5734 49.2234C57.3406 48.1518 55.9052 47.5192 55.0258 47.0028Z" fill="white"/>
</svg>
